<?xml version="1.0" ?><svg data-name="Layer 4 copy 9" id="Layer_4_copy_9" viewBox="0 0 128 128" xmlns="http://www.w3.org/2000/svg"><defs><style>.cls-1{fill:#3f3f3f;}.cls-2{fill:#fcd7b6;}.cls-3{fill:#ffdebb;}.cls-4{fill:#fff;}.cls-5{fill:#232323;}.cls-6{fill:#5b2000;}.cls-7{fill:#3a3a3a;}.cls-8{fill:#333;}.cls-9{fill:#595959;}.cls-10{fill:#03ff0f;}</style></defs><title/><path class="cls-1" d="M90.76,81.38S71.09,77.88,64,77.88s-26.76,3.5-26.76,3.5c-11.12,6.05-19,27.55-19,27.55h91.51S101.88,87.44,90.76,81.38Z"/><path class="cls-2" d="M87.44,52.06a2,2,0,0,0-1.06.13c0-.12,0-.24,0-.36,0-15.57-11.12-24.05-22.39-24.05V84.16c8.93,0,12.16-6.59,16.35-11.54a25.62,25.62,0,0,0,4.49-9.55,1.83,1.83,0,0,0,.5.19c1.73.32,3.59-1.92,4.17-5S89.16,52.38,87.44,52.06Z"/><path class="cls-3" d="M41.61,51.84c0,.12,0,.24,0,.36a2,2,0,0,0-1.06-.13c-1.73.32-2.66,3.09-2.08,6.18s2.45,5.34,4.17,5a1.83,1.83,0,0,0,.5-.19,25.62,25.62,0,0,0,4.49,9.55c4.19,5,7.42,11.54,16.35,11.54V27.78C52.74,27.78,41.61,36.27,41.61,51.84Z"/><ellipse class="cls-4" cx="55.62" cy="55.24" rx="3.84" ry="5.45" transform="translate(-4.1 106.02) rotate(-85.18)"/><path d="M59.38,55.4a3.15,3.15,0,1,0-3.15,3.15A3.15,3.15,0,0,0,59.38,55.4ZM54.56,55a.4.4,0,1,1-.4-.4A.4.4,0,0,1,54.56,55Zm2.38,1.76a1,1,0,1,1-1-1A1,1,0,0,1,56.94,56.76Z"/><ellipse class="cls-4" cx="72.38" cy="55.24" rx="5.45" ry="3.84" transform="translate(-4.39 6.28) rotate(-4.82)"/><path d="M75.11,55.4A3.15,3.15,0,1,0,72,58.55,3.15,3.15,0,0,0,75.11,55.4ZM70.29,55a.4.4,0,1,1-.4-.4A.4.4,0,0,1,70.29,55Zm2.38,1.76a1,1,0,1,1-1-1A1,1,0,0,1,72.67,56.76Z"/><rect class="cls-5" height="3.42" width="75.42" x="26.29" y="105.51"/><path class="cls-6" d="M74.49,38.85s-13.22,5.88-21.4,5.88a11.49,11.49,0,0,0-10.8,6.69l-1.21-4.25.73-10.31s.75-16.46,17.58-16.46C81.73,20.39,79.16,27,79.16,27s7.34-2.17,7.34,13.65c0,8.27.29,11.37-1.41,10.8C80.28,49.79,74.49,38.85,74.49,38.85Z"/><path class="cls-7" d="M92.7,49.28c0,5.92-9.06,21.12-9.06,21.12s-5.41-.13-3.48-1.33c1.59-1,4.1-10.87,4.92-17.64a34.55,34.55,0,0,0,.26-3.71c0-6-15.89-14.11-21.35-14.11S42.65,41.71,42.65,47.71a34.55,34.55,0,0,0,.26,3.71c.83,6.77,3.33,16.65,4.92,17.64,1.94,1.2-4.34,1.33-4.34,1.33s-8.2-15.2-8.2-21.12S35.69,35,39.19,30.71,45.79,19.07,64,19.07s21.29,7.3,24.81,11.64S92.7,43.37,92.7,49.28Z"/><rect class="cls-8" height="43.2" width="75.42" x="26.29" y="62.56"/><path class="cls-9" d="M85.09,51.42a34.55,34.55,0,0,0,.26-3.71c0-6-15.89-14.11-21.35-14.11S42.65,41.71,42.65,47.71a34.55,34.55,0,0,0,.26,3.71A13.83,13.83,0,0,1,41.8,46c0-9.52,9.94-17.25,22.2-17.25S86.2,36.48,86.2,46A13.83,13.83,0,0,1,85.09,51.42Z"/><rect class="cls-10" height="14.84" width="3.5" x="30.14" y="66.65"/><rect class="cls-10" height="14.84" width="3.5" x="30.14" y="86.08"/><rect class="cls-10" height="14.84" width="3.5" x="38.16" y="86.08"/><rect class="cls-10" height="14.84" width="3.5" x="79.41" y="86.08"/><rect class="cls-10" height="14.84" width="3.5" x="86.76" y="86.08"/><rect class="cls-10" height="14.84" width="3.5" x="93.91" y="86.08"/><rect class="cls-10" height="14.84" width="3.5" x="70.63" y="66.65"/><rect class="cls-10" height="14.84" width="3.5" x="93.91" y="66.65"/><path class="cls-10" d="M54.81,66.65V81.49H67V66.65Zm8.67,11.23H58.31V70.15h5.18Z"/><path class="cls-10" d="M78.09,66.65V81.49H90.26V66.65Zm8.67,11.23H81.59V70.15h5.18Z"/><path class="cls-10" d="M38.16,66.65V81.49H50.33V66.65Zm8.67,11.23H41.66V70.15h5.18Z"/><path class="cls-10" d="M46.31,86.08v14.84H58.48V86.08ZM55,97.31H49.81V89.58H55Z"/><path class="cls-10" d="M63.34,86.08v14.84H75.51V86.08ZM72,97.31H66.83V89.58H72Z"/></svg>