<?xml version="1.0" ?><svg data-name="Layer 4 copy 4" id="Layer_4_copy_4" viewBox="0 0 128 128" xmlns="http://www.w3.org/2000/svg"><defs><style>.cls-1{fill:#0800a3;}.cls-2{fill:#fcd7b6;}.cls-3{fill:#ffdebb;}.cls-4{fill:#fff;}.cls-5{fill:#828282;}.cls-6{fill:#231f20;}.cls-7{fill:#474747;}.cls-8{fill:#2b2b2b;}.cls-9{fill:#ccc;}</style></defs><title/><path class="cls-1" d="M90.87,81.45S71.12,77.94,64,77.94s-26.87,3.51-26.87,3.51C26,87.53,18.06,109.12,18.06,109.12h91.87S102,87.53,90.87,81.45Z"/><path class="cls-2" d="M87.53,52a2,2,0,0,0-1.06.13c0-.12,0-.24,0-.36,0-15.63-11.17-24.15-22.48-24.15v56.6c9,0,12.21-6.62,16.42-11.59a25.73,25.73,0,0,0,4.51-9.59,1.84,1.84,0,0,0,.5.19c1.73.32,3.61-1.93,4.19-5S89.26,52.34,87.53,52Z"/><path class="cls-3" d="M41.52,51.79c0,.12,0,.24,0,.36A2,2,0,0,0,40.47,52c-1.73.32-2.67,3.1-2.09,6.21s2.46,5.36,4.19,5a1.84,1.84,0,0,0,.5-.19,25.73,25.73,0,0,0,4.51,9.59C51.79,77.63,55,84.24,64,84.24V27.64C52.69,27.64,41.52,36.16,41.52,51.79Z"/><path class="cls-4" d="M61,55.12c-.18,2.46-2.76,4.22-5.77,3.92s-5.3-2.53-5.12-5,2.76-4.22,5.77-3.92S61.21,52.66,61,55.12Z"/><path d="M59.36,55.37a3.16,3.16,0,1,0-3.16,3.16A3.16,3.16,0,0,0,59.36,55.37ZM54.52,55a.41.41,0,1,1-.41-.41A.41.41,0,0,1,54.52,55Zm2.39,1.77a1,1,0,1,1-1-1A1,1,0,0,1,56.91,56.73Z"/><path class="cls-4" d="M77.86,54.06c-.18-2.46-2.76-4.22-5.77-3.92s-5.3,2.53-5.12,5,2.76,4.22,5.77,3.92S78,56.52,77.86,54.06Z"/><path d="M75.16,55.37A3.16,3.16,0,1,0,72,58.53,3.16,3.16,0,0,0,75.16,55.37ZM70.32,55a.41.41,0,1,1-.41-.41A.41.41,0,0,1,70.32,55Zm2.39,1.77a1,1,0,1,1-1-1A1,1,0,0,1,72.71,56.73Z"/><path class="cls-5" d="M86.59,40.82l-1.05-14L81.8,26l-1.57-5.67L75.81,22l-3.4-3.15-3.78.84L64,18.88l-4.31.84-4.1-.84-3.7,3.45-4.12-2-1.34,5.81-4,.7-1.05,14-.76,11.29,2.21,1.57,1.41-1.93V44s4.1-7.22,9.91-7.22A26.34,26.34,0,0,1,64,38.55a26.34,26.34,0,0,1,9.81-1.78c5.81,0,9.91,7.22,9.91,7.22v7.75l1.41,1.93,2.21-1.57Z"/><path class="cls-6" d="M89.75,43.16C87.93,29.77,77.1,19.43,64,19.43S40.07,29.77,38.25,43.16a10.76,10.76,0,0,0-5.19,9.05c0,5.37,4.44,9.73,7.45,9.73S44,57.59,44,52.21c0-3.75-.22-7-1.38-8.63C44.18,32.4,53.16,23.79,64,23.79S83.82,32.4,85.41,43.58C84.25,45.21,84,48.46,84,52.21c0,5.37.44,9.73,3.45,9.73s7.45-4.36,7.45-9.73A10.76,10.76,0,0,0,89.75,43.16Z"/><rect class="cls-7" height="43.37" width="75.72" x="26.14" y="62.3"/><rect class="cls-8" height="3.44" width="75.72" x="26.14" y="105.68"/><polygon class="cls-9" points="78.79 73.34 84.64 79.32 92.15 79.32 86.17 73.34 92.15 67.36 84.64 67.36 78.79 73.34"/><polygon class="cls-9" points="78.79 95.14 84.64 101.12 92.15 101.12 86.17 95.14 92.15 89.17 84.64 89.17 78.79 95.14"/><polygon class="cls-9" points="64.72 84.67 70.57 90.65 78.08 90.65 72.1 84.67 78.08 78.7 70.57 78.7 64.72 84.67"/><polygon class="cls-9" points="41.67 81.36 35.73 81.36 35.73 76.65 33.07 76.65 33.07 88.73 35.73 88.73 35.73 84.03 41.67 84.03 41.67 81.36"/><rect class="cls-9" height="2.6" width="2.6" x="44.08" y="81.39"/><rect class="cls-9" height="2.6" width="2.6" x="48.98" y="81.39"/><rect class="cls-9" height="2.6" width="2.6" x="53.89" y="81.39"/><rect class="cls-9" height="2.6" width="2.6" x="58.94" y="81.39"/><rect class="cls-9" height="2.6" width="2.6" x="62.52" y="77.39"/><rect class="cls-9" height="2.6" width="2.6" x="66.55" y="73.37"/><rect class="cls-9" height="2.6" width="2.6" x="70.54" y="69.37"/></svg>