<?xml version="1.0" ?><svg data-name="Layer 4 copy 5" id="Layer_4_copy_5" viewBox="0 0 128 128" xmlns="http://www.w3.org/2000/svg"><defs><style>.cls-1{fill:#282828;}.cls-2{fill:#fcd7b6;}.cls-3{fill:#ffdebb;}.cls-4{fill:#fff;}.cls-5{fill:#595959;}.cls-6{fill:#3f3f3f;}.cls-7{fill:#2d2d2d;}.cls-8{fill:#231f20;}.cls-9{fill:#00e1ff;}.cls-10{fill:#ff3c00;}</style></defs><title/><path class="cls-1" d="M90.87,81.45S71.12,77.94,64,77.94s-26.87,3.51-26.87,3.51C26,87.53,18.06,109.12,18.06,109.12h91.87S102,87.53,90.87,81.45Z"/><path class="cls-2" d="M87.53,52a2,2,0,0,0-1.06.13c0-.12,0-.24,0-.36,0-15.63-11.17-24.15-22.48-24.15v56.6c9,0,12.21-6.62,16.42-11.59a25.73,25.73,0,0,0,4.51-9.59,1.84,1.84,0,0,0,.5.19c1.73.32,3.61-1.93,4.19-5S89.26,52.34,87.53,52Z"/><path class="cls-3" d="M41.52,51.79c0,.12,0,.24,0,.36A2,2,0,0,0,40.47,52c-1.73.32-2.67,3.1-2.09,6.21s2.46,5.36,4.19,5a1.84,1.84,0,0,0,.5-.19,25.73,25.73,0,0,0,4.51,9.59C51.79,77.63,55,84.24,64,84.24V27.64C52.69,27.64,41.52,36.16,41.52,51.79Z"/><ellipse class="cls-4" cx="55.59" cy="55.21" rx="3.86" ry="5.47" transform="translate(-4.1 105.96) rotate(-85.18)"/><path d="M59.36,55.37a3.16,3.16,0,1,0-3.16,3.16A3.16,3.16,0,0,0,59.36,55.37ZM54.52,55a.41.41,0,1,1-.41-.41A.41.41,0,0,1,54.52,55Zm2.39,1.77a1,1,0,1,1-1-1A1,1,0,0,1,56.91,56.73Z"/><ellipse class="cls-4" cx="72.41" cy="55.21" rx="5.47" ry="3.86" transform="translate(-4.38 6.28) rotate(-4.82)"/><path d="M75.16,55.37A3.16,3.16,0,1,0,72,58.53,3.16,3.16,0,0,0,75.16,55.37ZM70.32,55a.41.41,0,1,1-.41-.41A.41.41,0,0,1,70.32,55Zm2.39,1.77a1,1,0,1,1-1-1A1,1,0,0,1,72.71,56.73Z"/><rect class="cls-5" height="43.37" width="75.72" x="26.14" y="62.56"/><rect class="cls-6" height="3.44" width="75.72" x="26.14" y="105.68"/><path class="cls-7" d="M86.59,40.53c0-15.89-7.37-13.71-7.37-13.71s2.59-7.94-19.85-7.94c-16.9,0-17.65,17.87-17.65,17.87l-.27,3.8,0,0-.76,11.54,2.21,1.61,1.41-2v-4.6s.55-2.45,8.77-2.45,21.49-5.9,21.49-5.9,9.19,3.34,9.19,8.36v4.6l1.41,2,2.21-1.61Z"/><path class="cls-8" d="M65.47,50.94v1.83H62.53V50.94H46.37V61.09H62.53V53.86h2.95v7.23H81.63V50.94Zm-4,9.06h-14V52h14Zm19.1,0h-14V52h14Z"/><polygon class="cls-9" points="35.78 94.16 35.06 93.33 48.98 81.23 55.83 91.75 63.09 77.73 66 84.91 70.33 76.83 75.3 71.86 79.8 79.03 87.32 85.63 92.54 85.25 92.62 86.34 86.94 86.75 78.92 79.68 75.1 73.6 71.16 77.54 65.87 87.48 62.97 80.33 55.94 93.92 48.75 82.88 35.78 94.16"/><path class="cls-10" d="M35.78,99.32l-.73-.81,13.22-12,7.93,3.6c8.28-10.47,8.56-10.29,9.06-10,.32.21,2.23,2,3.16,2.82l6.91-8.09,5.58,12.25L92.24,78l.68.85-12.42,10-5.45-12-6.53,7.65-.42-.38C66.9,83,65.54,81.8,64.95,81.29c-1.07,1-4.84,5.64-8.15,9.83l-.26.33-8.06-3.66Z"/><polygon class="cls-8" points="92.58 101.44 34.87 101.44 34.87 67.59 35.96 67.59 35.96 100.35 92.58 100.35 92.58 101.44"/><rect class="cls-9" height="1.59" width="5.44" x="38.21" y="71.65"/><rect class="cls-10" height="1.59" width="5.44" x="38.21" y="74.92"/></svg>