<?xml version="1.0" ?><svg data-name="Layer 4 copy 7" id="Layer_4_copy_7" viewBox="0 0 128 128" xmlns="http://www.w3.org/2000/svg"><defs><style>.cls-1{fill:#008ea5;}.cls-2{fill:#fcd7b6;}.cls-3{fill:#ffdebb;}.cls-4{fill:#fff;}.cls-5{fill:#3a3a3a;}.cls-6{fill:#5b2000;}.cls-7{fill:#545454;}.cls-8{fill:#7f7f7f;}.cls-9{fill:#f94c00;}.cls-10{fill:#d8d8d8;}.cls-11{fill:#e5e5e5;}.cls-12{fill:#e2e259;}.cls-13{fill:#3f3f3f;}.cls-14{fill:#ff2e2e;}.cls-15{fill:#2cff40;}</style></defs><title/><path class="cls-1" d="M90.87,81.45S71.12,77.94,64,77.94s-26.87,3.51-26.87,3.51C26,87.53,18.06,109.11,18.06,109.11h91.87S102,87.53,90.87,81.45Z"/><path class="cls-2" d="M87.53,52a2,2,0,0,0-1.06.13c0-.12,0-.24,0-.36,0-15.63-11.17-24.15-22.48-24.15v56.6c9,0,12.21-6.62,16.42-11.59a25.73,25.73,0,0,0,4.51-9.59,1.84,1.84,0,0,0,.5.19c1.73.32,3.61-1.93,4.19-5S89.26,52.34,87.53,52Z"/><path class="cls-3" d="M41.52,51.79c0,.12,0,.24,0,.36A2,2,0,0,0,40.47,52c-1.73.32-2.67,3.1-2.09,6.21s2.46,5.36,4.19,5a1.84,1.84,0,0,0,.5-.19,25.73,25.73,0,0,0,4.51,9.59C51.79,77.62,55,84.24,64,84.24V27.64C52.69,27.64,41.52,36.16,41.52,51.79Z"/><ellipse class="cls-4" cx="55.59" cy="55.21" rx="3.86" ry="5.47" transform="translate(-4.1 105.96) rotate(-85.18)"/><path d="M59.36,55.37a3.16,3.16,0,1,0-3.16,3.16A3.16,3.16,0,0,0,59.36,55.37ZM54.52,55a.41.41,0,1,1-.41-.41A.41.41,0,0,1,54.52,55Zm2.39,1.77a1,1,0,1,1-1-1A1,1,0,0,1,56.91,56.73Z"/><ellipse class="cls-4" cx="72.41" cy="55.21" rx="5.47" ry="3.86" transform="translate(-4.38 6.28) rotate(-4.82)"/><path d="M75.16,55.37A3.16,3.16,0,1,0,72,58.53,3.16,3.16,0,0,0,75.16,55.37ZM70.32,55a.41.41,0,1,1-.41-.41A.41.41,0,0,1,70.32,55Zm2.39,1.77a1,1,0,1,1-1-1A1,1,0,0,1,72.71,56.73Z"/><rect class="cls-5" height="3.44" width="75.72" x="26.14" y="105.68"/><path class="cls-6" d="M74.54,38.75S61.26,44.65,53,44.65A11.54,11.54,0,0,0,42.2,51.37L41,47.1l.74-10.35s.75-16.53,17.65-16.53c22.44,0,19.85,6.6,19.85,6.6s7.37-2.18,7.37,13.71c0,8.3.29,11.42-1.41,10.84C80.35,49.74,74.54,38.75,74.54,38.75Z"/><path class="cls-7" d="M92.82,49.22c0,5.94-9.1,21.2-9.1,21.2s-5.44-.13-3.49-1.34c1.6-1,4.11-10.91,4.94-17.72a34.69,34.69,0,0,0,.26-3.72c0-6-16-14.17-21.44-14.17S42.56,41.62,42.56,47.65a34.69,34.69,0,0,0,.26,3.72c.83,6.8,3.34,16.71,4.94,17.72,1.95,1.21-4.36,1.34-4.36,1.34s-8.23-15.26-8.23-21.2.39-14.29,3.91-18.65S45.72,18.89,64,18.89s21.38,7.32,24.91,11.68S92.82,43.29,92.82,49.22Z"/><rect class="cls-8" height="43.37" width="75.72" x="26.14" y="62.55"/><path class="cls-5" d="M85.17,51.37a34.69,34.69,0,0,0,.26-3.72c0-6-16-14.17-21.44-14.17S42.56,41.62,42.56,47.65a34.69,34.69,0,0,0,.26,3.72,13.88,13.88,0,0,1-1.12-5.44c0-9.56,10-17.32,22.29-17.32s22.29,7.76,22.29,17.32A13.88,13.88,0,0,1,85.17,51.37Z"/><polygon class="cls-9" points="65.27 79.86 56.33 79.86 57.64 94.58 65.27 97.96 72.91 94.58 74.22 79.86 65.27 79.86"/><polygon class="cls-10" points="70.51 93.66 70.51 93.62 70.51 89.65 70.51 87.64 62.04 87.64 62.04 84.57 70.51 84.57 70.51 82.56 60.03 82.56 60.03 84.57 60.03 87.64 60.03 89.65 68.5 89.65 68.5 92.01 65.22 92.66 60.31 91.68 59.92 93.66 65.21 94.7 65.22 94.67 65.22 94.7 70.51 93.66"/><rect class="cls-11" height="12.99" transform="translate(1.61 -1.51) rotate(0.94)" width="12.99" x="85.8" y="90.87"/><rect class="cls-12" height="11.56" transform="matrix(1, 0.02, -0.02, 1, 1.61, -1.51)" width="11.56" x="86.52" y="91.59"/><polygon class="cls-13" points="93.48 98.35 93.42 101.75 92.25 101.73 92.26 101.06 91.58 101.05 91.56 102.4 92.24 102.41 93.41 102.43 94.1 102.44 94.16 98.36 93.48 98.35"/><polygon class="cls-13" points="97.14 99.09 97.15 98.41 94.67 98.37 94.66 99.05 94.65 100.08 94.64 100.4 94.64 100.76 96.43 100.79 96.42 101.8 94.62 101.77 94.61 102.45 97.09 102.49 97.1 101.82 97.1 101.81 97.11 100.81 97.12 100.46 97.13 100.12 95.33 100.09 95.34 99.06 97.14 99.09"/><rect class="cls-4" height="12.52" rx="0.6" ry="0.6" transform="translate(44.58 -33.05) rotate(27.52)" width="12.52" x="83.53" y="68.26"/><path class="cls-14" d="M96,71.91l-7.64-4a.87.87,0,0,0-1.18.37l-.75,1.44,2,1a1,1,0,0,1,.39-.23,1.05,1.05,0,0,1,1.32.69,1,1,0,0,1,0,.45L92.58,73a1,1,0,0,1,.43-.28A1.05,1.05,0,1,1,92.32,74a1,1,0,0,1,0-.37l-2.46-1.3-.06,0L91,76.26a1.05,1.05,0,1,1-.69.22L89.07,72.6a1,1,0,0,1-1-1.17l-2-1-2.89,5.55a.87.87,0,0,0,.37,1.18l7.64,4a.87.87,0,0,0,1.18-.37l4-7.64A.87.87,0,0,0,96,71.91Z"/><path class="cls-4" d="M43.24,86.75l-1.09.78a5.61,5.61,0,0,0-4-2.36l.16-1a.92.92,0,0,0-.62-1,.38.38,0,0,0-.18-.11.47.47,0,0,0-.22.06.92.92,0,0,0-.81.76l-.27,1.63a8.13,8.13,0,0,0-2,1,7.51,7.51,0,0,0-1.66,1.53L31,87.85a.93.93,0,0,0-.3,1.84l1,.17a5.29,5.29,0,0,0,.88,4.54l-1.11.79a.93.93,0,0,0-.22,1.3l4.23,5.91a.93.93,0,0,0,1.3.22l1.11-.79.38.53a1.12,1.12,0,0,0,1.57.26l1.2-.86,1.31,1.83a.93.93,0,0,0,1.3.22l.7-.5a.93.93,0,0,0,.22-1.3l-1.31-1.83,1-.7,1.31,1.83a.93.93,0,0,0,1.3.22l.7-.5a.93.93,0,0,0,.22-1.3l-1.31-1.83,1.14-.82a1.12,1.12,0,0,0,.26-1.57L47.46,95l1.09-.78a.93.93,0,0,0,.22-1.3L44.54,87A.93.93,0,0,0,43.24,86.75Z"/><rect class="cls-15" height="7.83" rx="0.64" ry="0.64" transform="translate(-50.91 38.51) rotate(-35.58)" width="1.86" x="33.61" y="94.66"/><rect class="cls-15" height="7.83" rx="0.64" ry="0.64" transform="matrix(0.81, -0.58, 0.58, 0.81, -44.3, 43.42)" width="1.86" x="44.58" y="86.82"/><path class="cls-15" d="M33.39,94.59l5.08,7.1a1,1,0,0,0,1.42.24l1.16-.83,1.41,2A.93.93,0,0,0,44,102l-1.41-2,1.71-1.22,1.41,2a.93.93,0,0,0,1.51-1.08l-1.41-2,1.12-.8a1,1,0,0,0,.24-1.42l-5.08-7.1Z"/><path class="cls-15" d="M37.53,85.79l.25-1.52a.43.43,0,0,0-.85-.14L36.62,86a7.27,7.27,0,0,0-3.77,2.69L31,88.35a.43.43,0,0,0-.14.85l1.52.25a5,5,0,0,0,.69,4.71L41.76,88A5,5,0,0,0,37.53,85.79Zm-2.61,4.8a.65.65,0,1,1,.15-.91A.65.65,0,0,1,34.92,90.6Zm3-2.13a.65.65,0,1,1,.15-.91A.65.65,0,0,1,37.89,88.47Z"/><path class="cls-10" d="M53.35,73.53c0-1.25-1.66-2.09-3.89-2.53.51-2.22.41-4.1-.73-4.62-.94-.42-2.1.3-3.23,1.6-1.13-1.3-2.29-2-3.23-1.6-1.14.52-1.24,2.39-.73,4.62-2.23.44-3.89,1.28-3.89,2.53s1.66,2.1,3.88,2.56c-.5,2.21-.4,4.08.73,4.59a1.38,1.38,0,0,0,.57.12,4.09,4.09,0,0,0,2.65-1.72,4.09,4.09,0,0,0,2.65,1.72,1.38,1.38,0,0,0,.57-.12c1.14-.51,1.24-2.38.73-4.59C51.69,75.64,53.35,74.78,53.35,73.53Z"/><path class="cls-1" d="M52.34,73.53c0-1.09-1.44-1.82-3.39-2.2.44-1.94.36-3.57-.63-4-.82-.37-1.83.26-2.81,1.39-1-1.13-2-1.76-2.81-1.39-1,.45-1.08,2.08-.63,4-1.94.38-3.39,1.11-3.39,2.2s1.44,1.83,3.38,2.23c-.44,1.93-.35,3.55.64,4a1.2,1.2,0,0,0,.5.11,3.57,3.57,0,0,0,2.31-1.5,3.57,3.57,0,0,0,2.31,1.5,1.2,1.2,0,0,0,.5-.11c1-.45,1.08-2.07.64-4C50.89,75.36,52.34,74.62,52.34,73.53ZM48,68.09c.41.19.52,1.37.13,3.09l-1-.1a15.9,15.9,0,0,0-1.07-1.69C46.9,68.41,47.62,67.94,48,68.09Zm-2.46,7.13c-.37,0-.72,0-1.07,0-.16-.31-.32-.62-.47-1s-.19-.46-.29-.7c.09-.23.18-.46.29-.7s.31-.65.47-1c.34,0,.69,0,1.07,0s.72,0,1.07,0c.16.3.32.62.47,1s.19.46.29.7c-.09.23-.18.46-.29.7s-.31.65-.47,1C46.23,75.2,45.88,75.22,45.51,75.22Zm.57.85q-.28.47-.56.87-.28-.4-.57-.87h1.13ZM43.13,72l.29,0-.18.37C43.21,72.23,43.17,72.11,43.13,72Zm.11,2.72.18.38-.3,0C43.17,75,43.21,74.83,43.25,74.72ZM44.92,71q.3-.5.59-.91c.19.28.39.58.59.91C45.71,71,45.31,71,44.92,71Zm2.85,3.69c0,.11.08.23.11.35l-.3,0Zm0-2.38L47.59,72l.29,0C47.85,72.11,47.8,72.23,47.77,72.34Zm-4.72-4.25a.37.37,0,0,1,.15,0c.38,0,1,.46,1.75,1.33a15.87,15.87,0,0,0-1.07,1.69l-1,.1C42.53,69.46,42.64,68.28,43.05,68.09Zm-3.51,5.44c0-.45,1-1,2.74-1.38.13.46.29.92.47,1.38-.18.46-.34.93-.47,1.38C40.56,74.56,39.54,74,39.54,73.53ZM43.05,79c-.41-.19-.52-1.35-.13-3.06.32,0,.66.08,1,.11a15.79,15.79,0,0,0,1,1.65C44.12,78.65,43.4,79.12,43.05,79ZM48,79c-.34.15-1.07-.32-1.9-1.31a15.76,15.76,0,0,0,1-1.65c.34,0,.67-.06,1-.11C48.49,77.62,48.38,78.78,48,79Zm.77-4.05c-.13-.46-.29-.92-.47-1.38.18-.46.34-.93.47-1.38,1.72.35,2.74.93,2.74,1.38S50.46,74.56,48.74,74.91Zm-2.42-1.38a.81.81,0,1,1-.81-.81A.81.81,0,0,1,46.32,73.53Z"/></svg>